<?xml version="1.0" standalone="no"?>
<!DOCTYPE svg PUBLIC "-//W3C//DTD SVG 20010904//EN"
 "http://www.w3.org/TR/2001/REC-SVG-20010904/DTD/svg10.dtd">
<svg version="1.0" xmlns="http://www.w3.org/2000/svg"
 width="1000.000000pt" height="1000.000000pt" viewBox="0 0 1000.000000 1000.000000"
 preserveAspectRatio="xMidYMid meet">

<g transform="translate(0.000000,1000.000000) scale(0.100000,-0.100000)"
fill="#000000" stroke="none">
<path d="M1480 8345 c-221 -27 -328 -67 -376 -139 -22 -34 -50 -120 -67 -206
-36 -175 -43 -299 -52 -970 -9 -671 -18 -1170 -30 -1670 -3 -118 -7 -341 -10
-495 -3 -154 -7 -359 -10 -455 -12 -414 -16 -567 -20 -755 -3 -110 -7 -274
-10 -365 -2 -91 -7 -253 -10 -360 -9 -358 -17 -625 -21 -670 -8 -109 -4 -525
6 -581 6 -34 9 -68 6 -76 -4 -10 -1 -13 12 -9 49 16 129 25 236 27 l118 2 -6
61 c-25 231 -27 475 -22 2076 9 2617 14 2790 85 3021 41 133 97 185 256 238
215 72 335 79 1530 85 2748 16 3912 18 4033 7 214 -21 391 -81 446 -153 55
-73 86 -282 86 -587 l0 -173 38 7 c20 4 38 8 39 8 6 7 13 181 18 452 3 176 8
347 11 380 7 82 -12 327 -31 399 -27 105 -63 135 -205 175 -193 53 -226 54
-2870 77 -371 3 -695 7 -720 9 -25 1 -101 6 -170 9 -234 13 -444 57 -563 118
-78 39 -132 81 -257 203 -69 66 -152 141 -185 166 -78 60 -186 114 -255 128
-30 6 -68 14 -85 17 -59 13 -835 12 -945 -1z"/>
<path d="M8489 6176 c-2 -2 -218 -7 -479 -10 -261 -4 -511 -9 -555 -11 -44 -2
-163 -7 -265 -10 -102 -3 -250 -8 -330 -11 -242 -9 -337 -12 -535 -19 -104 -3
-217 -8 -250 -10 -85 -6 -257 -14 -420 -20 -181 -7 -313 -14 -400 -20 -38 -3
-119 -7 -180 -10 -60 -2 -142 -7 -181 -10 -39 -3 -124 -8 -190 -11 -152 -7
-231 -12 -269 -18 -16 -3 -109 -8 -205 -11 -96 -3 -191 -7 -210 -10 -19 -3
-80 -7 -135 -9 -55 -3 -111 -7 -125 -10 -14 -3 -68 -7 -120 -10 -140 -7 -289
-41 -397 -91 -114 -53 -161 -86 -240 -167 -165 -167 -252 -336 -384 -745 -28
-87 -54 -167 -59 -178 -4 -11 -29 -87 -55 -170 -52 -168 -197 -621 -225 -705
-10 -30 -53 -163 -95 -295 -43 -132 -85 -262 -95 -290 -11 -27 -42 -122 -70
-210 -27 -88 -54 -169 -59 -180 -5 -11 -56 -164 -114 -340 -174 -527 -176
-531 -217 -645 -6 -19 -31 -91 -55 -160 -98 -288 -185 -459 -252 -495 -18 -10
-33 -22 -33 -26 0 -10 -62 -38 -100 -46 -14 -3 -63 -5 -110 -5 -92 0 -232 39
-270 74 -10 10 -23 18 -28 18 -4 0 -23 16 -42 35 -38 39 -55 31 -37 -19 27
-79 182 -189 332 -236 132 -41 218 -38 715 24 245 30 1730 215 3300 411 1570
195 2882 362 2915 371 169 42 259 123 353 315 63 130 75 159 497 1234 241 615
344 880 699 1800 68 176 138 365 156 419 31 94 32 105 28 213 -5 99 -8 117
-27 137 -44 47 -176 105 -326 142 -60 16 -126 19 -461 21 -215 2 -393 1 -395
-1z"/>
</g>
</svg>
